<svg width="682.24" height="181.762" viewBox="0 0 682.24 181.762" xmlns="http://www.w3.org/2000/svg">
	<g id="svgGroup" stroke-linecap="round" fill-rule="evenodd" font-size="9pt" stroke="#000" stroke-width="0.25mm" fill="none" style="stroke:#000;stroke-width:0.25mm;fill:none">
		<path d="M 55.296 159.234 L 99.072 159.234 L 99.072 181.762 L 61.696 181.762 Q 53.045 181.762 47.437 181.501 A 131.143 131.143 0 0 1 45.184 181.378 A 44.474 44.474 0 0 1 40.7 180.842 Q 38.394 180.456 35.771 179.822 A 106.465 106.465 0 0 1 30.208 178.306 Q 21.248 175.618 15.104 170.242 Q 5.632 161.538 2.816 149.378 Q 0.396 138.928 0.056 125.358 A 180.502 180.502 0 0 1 0 120.834 L 0 2.562 L 24.064 2.562 L 24.064 120.322 Q 24.064 134.831 27.242 143.229 A 30.845 30.845 0 0 0 27.392 143.618 A 24.023 24.023 0 0 0 44.498 157.999 Q 49.019 159.157 54.554 159.229 A 56.785 56.785 0 0 0 55.296 159.234 Z" id="0" vector-effect="non-scaling-stroke"/>
		<path d="M 224 159.234 L 224 181.762 L 122.112 181.762 L 122.112 45.314 A 48.452 48.452 0 0 1 123.948 31.647 A 37.428 37.428 0 0 1 134.144 14.85 A 40.7 40.7 0 0 1 146.039 6.973 A 37.757 37.757 0 0 1 152.576 4.866 Q 160.413 3.103 170.949 2.689 A 171.267 171.267 0 0 1 177.664 2.562 L 224 2.562 L 224 25.09 L 174.336 25.09 A 49.202 49.202 0 0 0 163.883 26.099 Q 148.786 29.396 146.561 43.458 A 33.182 33.182 0 0 0 146.176 48.642 L 146.176 77.826 L 205.312 77.826 L 205.312 100.354 L 146.176 100.354 L 146.176 159.234 L 224 159.234 Z" id="1" vector-effect="non-scaling-stroke"/>
		<path d="M 273.664 116.226 L 273.664 181.762 L 250.88 181.762 L 250.88 69.122 Q 250.88 41.474 268.672 22.018 A 58.832 58.832 0 0 1 311.575 2.62 A 79.127 79.127 0 0 1 314.624 2.562 L 373.248 2.562 L 373.248 181.762 L 349.184 181.762 L 349.184 25.09 L 314.624 25.09 Q 295.936 25.09 284.8 36.098 Q 276.417 44.385 274.344 60.071 A 84.92 84.92 0 0 0 273.664 71.17 L 273.664 92.93 A 46.433 46.433 0 0 1 296.041 80.039 Q 303.383 78.103 312.104 77.861 A 90.813 90.813 0 0 1 314.624 77.826 L 337.92 77.826 L 337.92 100.354 L 314.624 100.354 Q 304.077 100.354 296.307 102.162 A 44.704 44.704 0 0 0 290.432 103.938 A 39.255 39.255 0 0 0 278.023 111.707 A 49.828 49.828 0 0 0 273.664 116.226 Z" id="2" vector-effect="non-scaling-stroke"/>
		<path d="M 431.872 181.762 L 407.808 181.762 L 407.808 65.282 Q 407.808 42.436 416.094 27.109 A 52.602 52.602 0 0 1 423.04 17.154 Q 438.272 0.002 466.432 0.002 Q 494.848 0.002 510.08 13.826 Q 525.312 27.65 525.312 52.738 Q 525.312 67.291 519.059 77.05 A 33.983 33.983 0 0 1 517.632 79.106 A 35.341 35.341 0 0 1 509.429 86.84 Q 505.43 89.621 500.263 91.929 A 84.432 84.432 0 0 1 491.52 95.234 L 491.52 96.258 A 65.14 65.14 0 0 1 502.638 101.731 Q 508.693 105.526 512.709 110.331 A 33.312 33.312 0 0 1 517.248 117.378 Q 522.585 128.574 523.559 151.662 A 259.157 259.157 0 0 1 523.776 162.562 L 523.776 181.762 L 499.712 181.762 L 499.712 148.994 A 55.309 55.309 0 0 0 498.411 136.631 Q 495.928 125.798 488.704 118.658 Q 478.943 109.01 461.533 107.918 A 73.013 73.013 0 0 0 456.96 107.778 L 443.136 107.778 L 443.136 85.25 L 457.728 85.25 Q 478.719 85.25 488.691 77.966 A 22.662 22.662 0 0 0 491.776 75.266 Q 501.248 65.282 501.248 51.458 A 29.508 29.508 0 0 0 499.585 41.353 A 25.523 25.523 0 0 0 491.904 30.466 A 32.214 32.214 0 0 0 478.282 23.741 Q 473.2 22.53 467.2 22.53 Q 454.375 22.53 446.205 27.793 A 26.397 26.397 0 0 0 440.704 32.514 A 29.294 29.294 0 0 0 435.344 41.744 Q 432.218 50.076 431.906 62.486 A 111.495 111.495 0 0 0 431.872 65.282 L 431.872 181.762 Z" id="3" vector-effect="non-scaling-stroke"/>
		<path d="M 580.096 25.09 L 580.096 181.762 L 556.032 181.762 L 556.032 2.562 L 619.264 2.562 A 112.99 112.99 0 0 1 636.691 3.814 Q 645.797 5.239 653.063 8.286 A 46.859 46.859 0 0 1 666.624 16.77 A 43.591 43.591 0 0 1 678.305 34.955 Q 682.24 46.15 682.24 61.442 L 682.24 181.762 L 658.176 181.762 L 658.176 58.114 Q 658.176 46.061 653.083 38.61 A 23.512 23.512 0 0 0 647.552 32.898 A 37.933 37.933 0 0 0 634.571 26.863 Q 627.816 25.09 619.52 25.09 L 580.096 25.09 Z" id="4" vector-effect="non-scaling-stroke"/>
	</g>
</svg>